<svg id="Layer_1" data-name="Layer 1" xmlns="http://www.w3.org/2000/svg" viewBox="0 0 600 600"><defs><style>.cls-1{fill:#fff;}</style></defs><title>Artboard 1</title><path class="cls-1" d="M601,601H1V1H601ZM436,443.13a22.29,22.29,0,0,1,4.41-.31c16.92,2.16,32.1-2.86,45.84-12.1,14.33-9.64,23.5-23.42,28-40,3.25-12,3.6-24.16-.64-36.09-1.3-3.68-.31-6.13,2.63-8.66a74.3,74.3,0,0,0,23.95-38.61c6.37-24.53-4.62-57.47-26.91-70.83-4-2.42-5.35-5.23-4-9.7a55.91,55.91,0,0,0,1.33-7.76,62.7,62.7,0,0,0-10-45.54c-10.38-15.68-24.73-26.31-43.84-29.32-4-.63-5.53-3.09-6-6.73-1.61-13.45-7.21-25-16.16-35.16A64.47,64.47,0,0,0,407.4,83.6c-12.15-4.22-24.87-5.55-37.65-2.46-3.5.85-5.48-.15-7.23-3.25a62,62,0,0,0-7.31-10.64c-6.8-7.7-15.26-13-24.75-17.09a64.62,64.62,0,0,0-36.87-4.38,71.69,71.69,0,0,0-41.73,22.39c-2.31,2.49-4.71,2.73-7.61,1.92-3.65-1-7.25-2.38-11-3-23.41-4-43.79,2.77-60.67,18.93-14.5,13.88-21.78,31.3-21,51.67.15,4.17-1.41,6.16-5.81,5.64-16.53-1.94-31.47,2.88-45,11.84a66.49,66.49,0,0,0-19.95,21.24c-10.62,17.34-13.23,35.39-8.12,54.87.73,2.77,1.37,5.49-1.42,8.21A139.24,139.24,0,0,0,57.1,255.31c-8.41,11.19-12.79,24.12-12.16,38a96.85,96.85,0,0,0,4.87,26.09c4,12,10.89,22.4,22,29.32C78.6,353,78.64,353.3,76.87,361c-4.12,18-1.32,35.11,8.5,50.59,10.31,16.26,24.88,27,44.29,30.31,3.52.6,5.33,2.56,6.23,6.11,1.74,6.86,3.37,13.84,6.1,20.33,7,16.72,20.25,27.63,36.65,34,11.73,4.53,24.41,6.08,37.07,2.82,4.26-1.1,6.86.2,9.08,4.24,9.82,17.94,26.18,27.39,45.39,30.85,24.66,4.44,46.13-3.71,63.72-21.39,3.39-3.4,6.1-2.89,10.09-2.08,8.37,1.71,17,4,25.36,3.45a68.94,68.94,0,0,0,42.37-17.8c11.54-10.44,19.31-23.14,22-38.6C434.83,457.09,435.24,450.21,436,443.13Z"/><path d="M436,443.13c-.78,7.09-1.19,14-2.35,20.71-2.65,15.45-10.43,28.15-22,38.6a68.94,68.94,0,0,1-42.37,17.8c-8.35.57-17-1.74-25.36-3.45-4-.82-6.7-1.33-10.09,2.08-17.59,17.68-39.06,25.83-63.72,21.39-19.2-3.46-35.56-12.91-45.39-30.85-2.21-4-4.82-5.34-9.08-4.24-12.66,3.26-25.34,1.71-37.07-2.82-16.4-6.33-29.61-17.23-36.65-34-2.73-6.49-4.36-13.47-6.1-20.33-.9-3.54-2.71-5.5-6.23-6.11-19.4-3.31-34-14.05-44.29-30.31C75.55,396.15,72.74,379,76.87,361c1.77-7.73,1.73-8.07-5.05-12.29-11.11-6.92-18-17.36-22-29.32a96.85,96.85,0,0,1-4.87-26.09c-.62-13.91,3.76-26.84,12.16-38a139.24,139.24,0,0,1,14.19-15.84c2.79-2.72,2.15-5.45,1.42-8.21-5.1-19.47-2.49-37.53,8.12-54.87a66.49,66.49,0,0,1,19.95-21.24c13.53-9,28.46-13.78,45-11.84,4.4.52,6-1.47,5.81-5.64-.74-20.36,6.54-37.78,21-51.67,16.88-16.17,37.25-23,60.67-18.93,3.72.64,7.31,2,11,3,2.9.81,5.3.57,7.61-1.92a71.69,71.69,0,0,1,41.73-22.39,64.62,64.62,0,0,1,36.87,4.38c9.48,4.06,17.94,9.39,24.75,17.09a62,62,0,0,1,7.31,10.64c1.75,3.1,3.74,4.09,7.23,3.25,12.77-3.09,25.49-1.76,37.65,2.46a64.47,64.47,0,0,1,27.25,18.72c9,10.15,14.55,21.7,16.16,35.16.44,3.65,2,6.1,6,6.73,19.11,3,33.46,13.64,43.84,29.32a62.7,62.7,0,0,1,10,45.54,55.91,55.91,0,0,1-1.33,7.76c-1.38,4.47-.07,7.28,4,9.7,22.3,13.36,33.29,46.3,26.91,70.83A74.3,74.3,0,0,1,516.25,346c-2.93,2.53-3.93,5-2.63,8.66,4.24,11.94,3.88,24.12.64,36.09-4.5,16.59-13.67,30.37-28,40-13.74,9.24-28.91,14.26-45.84,12.1A22.29,22.29,0,0,0,436,443.13ZM329.15,185.81c15.49-1.38,28.89,2.5,41.41,9.34,3.57,2,5.23,1,7.61-1.28,11.2-10.71,22.55-21.27,33.74-32,4.42-4.24,9.3-8.26,12.69-13.25,6.6-9.72,5.51-20.57,2.47-31.31-3.66-12.94-12.36-21.48-25.3-23.36C389,92.09,375.91,93,363,92.21a19.82,19.82,0,0,1-10.32-3.68c-3.19-2.45-5.46-6.22-7.78-9.66-8.16-12.11-17.71-22.17-33.33-23.73-10.59-1.06-20.42.14-29,7.63-10.05,8.79-14.49,20-16.11,32.78-1.93,15.28,8.31,28.31,23.37,29.79,13.57,1.34,24.36,8,33.53,18.19l-10.62,10c-9.71-11.38-21.49-16.7-35.75-15.63-14.51,1.09-25,9.08-33,21.27L237.38,152c6.82-7.83,13.22-15.48,20-22.79,3.34-3.6,3.57-6.9,1.68-11.27-5.48-12.67-15.58-21.39-25.56-30.09-3.34-2.91-7.92-4.85-12.26-6.1-24.59-7.1-48.41,8.49-51.54,33.83-1,8.2-.75,16.56-1.06,24.85-.24,6.33-.45,12.66-.69,19.32a18.17,18.17,0,0,1-3.13-.55c-12.07-5.54-24.37-5.8-37-2.14C108,162.75,94.55,174.2,91.4,195.44a89.85,89.85,0,0,0-1.19,14.41c.16,10.82,1.08,21.66,11,28.66,4.69,3.33,10,5.81,15,8.59,3,1.64,6.1,3.11,9.62,4.89,4-12.91,9.8-24.06,20-32.79L158,232.3c-12.62,8.82-20.11,20.32-21.32,35.44s4.69,27.54,15.33,38.34l-10.41,9.45A60.37,60.37,0,0,1,126,286.69c-1.24-5.49-1.58-11.29-3.57-16.47-3.26-8.5-11-12.27-19.11-14.75-20.08-6.12-33-.28-43,17.73-5.38,9.64-3.4,25,3.46,31.94,5.5,5.56,11.29,10.84,17.18,16,11.87,10.34,18.37,23.12,17.73,39-.38,9.47-1.75,18.91-2.29,28.38-.75,13.37,6.14,30,22.61,32.57,11.38,1.75,21.69-1,30.42-9.21C162,400,174.92,388.39,187.75,376.75c5.76-5.22,6-7.12,3.15-14.34-2.49-6.3-5.55-12.73-6.21-19.32-1.32-13.14-1.06-10.4,10-10.65,5-.11,6.58,2,6.22,7a41.74,41.74,0,0,0,7.57,27.42C219,382,233.51,389.19,252.2,387.43c1.86-.17,4.9.59,5.57,1.87,1.56,3,2,6.55,3.32,11.48-7.64-.39-14.37-.33-21-1.17-10.15-1.3-18.75-6.53-27-12.16-5-3.42-9.06-3.75-13.29-.57-15,11.32-30.19,22.52-45,34.11-3,2.33-6,5.87-6.88,9.38-3.73,15.22-3.09,29.3,7.57,42.85C168.15,489.33,183,495.83,203.29,493c11.47-1.61,22.67.25,30.64,11,13.31,17.91,30.39,27.69,53.79,24.49,18.93-2.59,31.41-19.4,27.47-38-1.58-7.44-2.1-15.13-2.77-22.73-.55-6.32-1.57-7.81-7.72-9-6.87-1.32-13.82-2.31-20.61-4-7.85-1.9-15.72-4.09-21.07-12,5.75-2.72,11.23-5.08,16.48-7.89,3.58-1.91,5.74-1.31,8.49,1.77,14.78,16.56,39.28,18.06,56.19,3.7,2-1.69,3.88-3.49,6.06-5.46l8.83,9.49a63.7,63.7,0,0,1-30.55,17.13c-3,.77-2.9,2-1.94,4.19,1.73,4,3.19,8,5.15,11.86,2.16,4.2,4.06,8.87,7.3,12.12,9.62,9.65,24,12.44,36.43,5.17,13.41-7.84,25.91-17.43,38-27.24,10.48-8.5,14.52-20.37,12.94-34a48.24,48.24,0,0,1,0-5.16c2,.17,3.47.42,4.92.41,7.95-.06,16.42,1.6,23.36-3.28,10.45-7.34,20.55-15.23,30.42-23.33,13.19-10.83,11.24-35.72,1.4-47.62-2.33-2.82-4.8-5.53-7.16-8.33-4.94-5.88-11.36-9.3-18.73-11.91-3.73,12.84-9.67,23.73-19.87,32.42l-11.66-12.54c12.69-9.13,19.59-20.88,20.5-35.76s-5.16-27.12-15.81-37.83l11.26-10c9.54,10.27,15.37,21.57,16.39,35,.76,10,6.5,18.21,15.48,20.38,21.16,5.11,36.06-2.77,44.71-24.18a70.63,70.63,0,0,0,4.73-35.73c-1.58-12.17-11.21-21.63-23.49-21.47-3.56,0-7.11.82-11.57,1.38a48.74,48.74,0,0,1,1.85-4.93c4.79-9.31,6.25-19.13,5.48-29.54-.72-9.74-5-18.14-8.35-27-4.58-12-12.72-19.94-23.89-25.58a33.54,33.54,0,0,0-37.85,5.43c-12.8,12.17-25.81,24.12-38.78,36.1-5.24,4.84-5.23,4.71-1.06,10.24A70,70,0,0,1,403,255.17l-10.85-.7a6.34,6.34,0,0,1-.41-1.55c3.62-28.24-20.83-55.57-52.29-51.36a5.28,5.28,0,0,1-4.34-2.11C332.91,195.22,331.24,190.71,329.15,185.81Z"/><path class="cls-1" d="M329.15,185.81c2.09,4.9,3.76,9.41,6,13.63a5.28,5.28,0,0,0,4.34,2.11c31.46-4.21,55.91,23.12,52.29,51.36a6.34,6.34,0,0,0,.41,1.55l10.85.7a70,70,0,0,0-14.34-44.35c-4.17-5.53-4.17-5.4,1.06-10.24,13-12,26-23.93,38.78-36.1a33.54,33.54,0,0,1,37.85-5.43c11.17,5.64,19.31,13.56,23.89,25.58,3.38,8.87,7.64,17.27,8.35,27,.77,10.41-.69,20.23-5.48,29.54a48.74,48.74,0,0,0-1.85,4.93c4.46-.56,8-1.33,11.57-1.38,12.28-.16,21.9,9.3,23.49,21.47a70.63,70.63,0,0,1-4.73,35.73c-8.66,21.41-23.55,29.29-44.71,24.18-9-2.17-14.72-10.39-15.48-20.38-1-13.42-6.85-24.72-16.39-35l-11.26,10c10.65,10.7,16.73,23,15.81,37.83s-7.82,26.62-20.5,35.76l11.66,12.54c10.2-8.69,16.14-19.58,19.87-32.42,7.37,2.62,13.79,6,18.73,11.91,2.36,2.8,4.83,5.51,7.16,8.33,9.83,11.9,11.79,36.8-1.4,47.62-9.88,8.11-20,16-30.42,23.33-6.94,4.88-15.42,3.21-23.36,3.28-1.45,0-2.91-.23-4.92-.41a48.24,48.24,0,0,0,0,5.16c1.58,13.58-2.46,25.45-12.94,34-12.1,9.81-24.6,19.4-38,27.24C363,502.2,348.66,499.4,339,489.75c-3.24-3.25-5.14-7.92-7.3-12.12-2-3.83-3.42-7.91-5.15-11.86-1-2.19-1.09-3.42,1.94-4.19a63.7,63.7,0,0,0,30.55-17.13L350.24,435c-2.18,2-4.08,3.77-6.06,5.46-16.9,14.36-41.4,12.87-56.19-3.7-2.75-3.08-4.91-3.68-8.49-1.77-5.25,2.81-10.73,5.17-16.48,7.89,5.35,7.88,13.22,10.07,21.07,12,6.79,1.64,13.74,2.64,20.61,4,6.15,1.18,7.16,2.67,7.72,9,.67,7.6,1.19,15.29,2.77,22.73,3.94,18.56-8.53,35.37-27.47,38-23.4,3.2-40.47-6.59-53.79-24.49-8-10.72-19.18-12.58-30.64-11-20.26,2.85-35.15-3.66-47.83-19.78-10.66-13.55-11.3-27.63-7.57-42.85.86-3.51,3.9-7.05,6.88-9.38,14.83-11.59,30-22.79,45-34.11,4.23-3.18,8.24-2.86,13.29.57,8.29,5.63,16.89,10.86,27,12.16,6.61.84,13.33.78,21,1.17-1.32-4.92-1.76-8.49-3.32-11.48-.67-1.28-3.71-2-5.57-1.87-18.69,1.76-33.17-5.38-43.78-20.55a41.74,41.74,0,0,1-7.57-27.42c.36-5-1.26-7.13-6.22-7-11,.25-11.27-2.49-10,10.65.66,6.59,3.72,13,6.21,19.32,2.86,7.22,2.61,9.12-3.15,14.34C174.92,388.39,162,400,149.41,411.84c-8.72,8.21-19,11-30.42,9.21-16.48-2.53-23.37-19.2-22.61-32.57.53-9.47,1.9-18.9,2.29-28.38.64-15.86-5.87-28.64-17.73-39-5.89-5.14-11.69-10.42-17.18-16-6.86-6.93-8.84-22.29-3.46-31.94,10.05-18,23-23.85,43-17.73,8.16,2.48,15.85,6.25,19.11,14.75,2,5.18,2.33,11,3.57,16.47a60.37,60.37,0,0,0,15.65,28.85l10.41-9.45c-10.64-10.8-16.54-23.25-15.33-38.34s8.7-26.62,21.32-35.44l-12.2-13.1c-10.22,8.73-16,19.88-20,32.79-3.52-1.78-6.62-3.24-9.62-4.89-5.07-2.78-10.36-5.26-15-8.59-9.88-7-10.8-17.84-11-28.66a89.85,89.85,0,0,1,1.19-14.41c3.15-21.24,16.65-32.69,36.36-38.38,12.67-3.66,25-3.39,37,2.14a18.17,18.17,0,0,0,3.13.55c.24-6.66.45-13,.69-19.32.31-8.29.05-16.65,1.06-24.85,3.13-25.34,27-40.92,51.54-33.83,4.34,1.25,8.92,3.19,12.26,6.1,10,8.7,20.08,17.42,25.56,30.09,1.89,4.37,1.66,7.67-1.68,11.27-6.77,7.31-13.17,15-20,22.79l6.59,7.11c8-12.19,18.5-20.17,33-21.27,14.26-1.07,26,4.25,35.75,15.63l10.62-10c-9.17-10.2-20-16.86-33.53-18.19-15.05-1.48-25.3-14.51-23.37-29.79,1.62-12.81,6.06-24,16.11-32.78,8.57-7.49,18.39-8.69,29-7.63,15.62,1.56,25.17,11.63,33.33,23.73,2.32,3.44,4.59,7.21,7.78,9.66A19.82,19.82,0,0,0,363,92.21c12.92.81,26.05-.11,38.79,1.74,12.94,1.88,21.63,10.42,25.3,23.36,3,10.74,4.13,21.59-2.47,31.31-3.39,5-8.27,9-12.69,13.25-11.19,10.72-22.54,21.27-33.74,32-2.38,2.28-4,3.24-7.61,1.28C358,188.31,344.64,184.43,329.15,185.81Zm-38.79,38.85a53.49,53.49,0,0,0-2-5.53c-4.87-9.86-12.79-16.51-22.72-20.78-18.34-7.88-36.63-8.52-52.86,4.25-18.22,14.33-25.69,34.62-25.56,57.18.13,23,12.4,38.49,34.05,45.93,17.79,6.11,34.38,4.43,48.55-9.49,3.13-3.07,3-5.25.39-8.35s-4.94-4.52-8.89-2a39,39,0,0,1-23.35,6c-16.5-1-31.24-12.73-36.19-28.6a40.84,40.84,0,0,1,13.91-44.33c13.08-10.12,31.41-11.52,45.41-2.53,5.87,3.77,10.63,9.28,16.25,14.31Zm92.24,66.89c-2.27-1.56-4.08-3-6.06-4.14-8.51-4.9-17.66-6-27.39-5.34-22.47,1.59-41.84,17-46.53,38.14-3.22,14.54-.74,28.62,4.11,42.57C314.43,385,335,402.42,363,397.6c16.54-2.85,30.26-10.08,37.31-26.49,3.53-8.22,3.2-9-4-14.23-3-2.15-4.37-1.64-6,1.55-8.11,15.48-23.27,23.6-40.36,21.92-22.08-2.18-37.39-20.59-36.27-43.6,1-20.44,19.23-37.58,40.33-37,7.12.18,14.19,2.46,21.75,3.87Z"/><path d="M290.36,224.66l-13,6c-5.62-5-10.37-10.54-16.25-14.31-14-9-32.33-7.59-45.41,2.53a40.84,40.84,0,0,0-13.91,44.33c4.95,15.87,19.68,27.62,36.19,28.6a39,39,0,0,0,23.35-6c3.95-2.47,6.3-1,8.89,2s2.74,5.28-.39,8.35c-14.17,13.91-30.76,15.59-48.55,9.49-21.66-7.44-33.93-22.9-34.05-45.93-.13-22.56,7.34-42.85,25.56-57.18,16.24-12.77,34.53-12.13,52.86-4.25,9.94,4.27,17.85,10.92,22.72,20.78A53.49,53.49,0,0,1,290.36,224.66Z"/><path d="M382.6,291.55l-6.9,12c-7.56-1.41-14.63-3.69-21.75-3.87-21.11-.54-39.34,16.6-40.33,37-1.12,23,14.19,41.42,36.27,43.6,17.09,1.69,32.26-6.44,40.36-21.92,1.68-3.2,3.09-3.7,6-1.55,7.18,5.22,7.51,6,4,14.23-7,16.41-20.77,23.63-37.31,26.49-28,4.82-48.55-12.62-56.25-34.83-4.84-13.95-7.33-28-4.11-42.57,4.69-21.14,24.06-36.55,46.53-38.14,9.73-.69,18.88.45,27.39,5.34C378.52,288.55,380.33,290,382.6,291.55Z"/></svg>