<?xml version="1.0" encoding="utf-8"?>
<!-- Generator: Adobe Illustrator 21.0.1, SVG Export Plug-In . SVG Version: 6.00 Build 0)  -->
<svg version="1.1" id="Layer_1" xmlns="http://www.w3.org/2000/svg" xmlns:xlink="http://www.w3.org/1999/xlink" x="0px" y="0px"
	 viewBox="0 0 600 600" style="enable-background:new 0 0 600 600;" xml:space="preserve">
<style type="text/css">
	.st0{fill:#FFFFFF;}
	.st1{fill:#844793;}
	.st2{fill:#D6BBF2;}
	.st3{fill:#79EF48;}
	.st4{fill:#58C426;}
</style>
<title>Artboard 1</title>
<path class="st0" d="M443.8,476.1c1.5-0.2,2.9-0.4,4.4-0.3c16.9,2.2,32.1-2.9,45.8-12.1c14.3-9.6,23.5-23.4,28-40
	c3.2-12,3.6-24.2-0.6-36.1c-1.3-3.7-0.3-6.1,2.6-8.7c11.8-10.1,20.2-23.6,24-38.6c6.4-24.5-4.6-57.5-26.9-70.8c-4-2.4-5.4-5.2-4-9.7
	c0.6-2.6,1.1-5.1,1.3-7.8c2.6-15.9-0.9-32.2-10-45.5c-10.4-15.7-24.7-26.3-43.8-29.3c-4-0.6-5.5-3.1-6-6.7
	c-1.6-13.4-7.2-25-16.2-35.2c-7.3-8.5-16.7-14.9-27.2-18.7c-12.1-4.2-24.9-5.6-37.6-2.5c-3.5,0.8-5.5-0.2-7.2-3.2
	c-2.1-3.8-4.5-7.4-7.3-10.6c-6.8-7.7-15.3-13-24.8-17.1c-11.6-5-24.4-6.6-36.9-4.4c-16,2.5-30.8,10.4-41.7,22.4
	c-2.3,2.5-4.7,2.7-7.6,1.9c-3.6-1-7.2-2.4-11-3c-23.4-4-43.8,2.8-60.7,18.9c-14.5,13.9-21.8,31.3-21,51.7c0.1,4.2-1.4,6.2-5.8,5.6
	c-16.5-1.9-31.5,2.9-45,11.8c-8.1,5.5-15,12.8-19.9,21.2c-10.6,17.3-13.2,35.4-8.1,54.9c0.7,2.8,1.4,5.5-1.4,8.2
	c-5.1,4.9-9.9,10.2-14.2,15.8c-8.4,11.2-12.8,24.1-12.2,38c0.4,8.9,2.1,17.7,4.9,26.1c4,12,10.9,22.4,22,29.3
	c6.8,4.3,6.8,4.6,5.1,12.3c-4.1,18-1.3,35.1,8.5,50.6c10.3,16.3,24.9,27,44.3,30.3c3.5,0.6,5.3,2.6,6.2,6.1
	c1.7,6.9,3.4,13.8,6.1,20.3c7,16.7,20.2,27.6,36.7,34c11.7,4.5,24.4,6.1,37.1,2.8c4.3-1.1,6.9,0.2,9.1,4.2
	c9.8,17.9,26.2,27.4,45.4,30.8c24.7,4.4,46.1-3.7,63.7-21.4c3.4-3.4,6.1-2.9,10.1-2.1c8.4,1.7,17,4,25.4,3.5
	c15.7-0.9,30.7-7.2,42.4-17.8c11.5-10.4,19.3-23.1,22-38.6C442.6,490.1,443,483.2,443.8,476.1z"/>
<path class="st1" d="M443.8,476.1c-0.8,7.1-1.2,14-2.4,20.7c-2.6,15.5-10.4,28.1-22,38.6c-11.6,10.6-26.6,16.9-42.3,17.8
	c-8.4,0.6-17-1.7-25.4-3.5c-4-0.8-6.7-1.3-10.1,2.1c-17.6,17.7-39.1,25.8-63.7,21.4c-19.2-3.5-35.6-12.9-45.4-30.9
	c-2.2-4-4.8-5.3-9.1-4.2c-12.7,3.3-25.3,1.7-37.1-2.8c-16.4-6.3-29.6-17.2-36.6-34c-2.7-6.5-4.4-13.5-6.1-20.3
	c-0.9-3.5-2.7-5.5-6.2-6.1c-19.4-3.3-34-14-44.3-30.3c-9.7-15.5-12.6-32.6-8.4-50.6c1.8-7.7,1.7-8.1-5.1-12.3
	c-11.1-6.9-18-17.4-22-29.3c-2.8-8.4-4.5-17.2-4.9-26.1c-0.6-13.9,3.8-26.8,12.2-38c4.3-5.6,9.1-10.9,14.2-15.8
	c2.8-2.7,2.2-5.4,1.4-8.2c-5.1-19.5-2.5-37.5,8.1-54.9c5-8.5,11.8-15.7,20-21.2c13.5-9,28.5-13.8,45-11.8c4.4,0.5,6-1.5,5.8-5.6
	c-0.7-20.4,6.5-37.8,21-51.7c16.9-16.2,37.2-23,60.7-18.9c3.7,0.6,7.3,2,11,3c2.9,0.8,5.3,0.6,7.6-1.9c11-12,25.7-19.9,41.7-22.4
	c12.5-2.2,25.3-0.7,36.9,4.4c9.5,4.1,17.9,9.4,24.8,17.1c2.8,3.3,5.3,6.8,7.3,10.6c1.8,3.1,3.7,4.1,7.2,3.2
	c12.8-3.1,25.5-1.8,37.6,2.5c10.6,3.8,19.9,10.2,27.2,18.7c9,10.2,14.5,21.7,16.2,35.2c0.4,3.6,2,6.1,6,6.7
	c19.1,3,33.5,13.6,43.8,29.3c9.1,13.3,12.6,29.6,10,45.5c-0.3,2.6-0.7,5.2-1.3,7.8c-1.4,4.5-0.1,7.3,4,9.7
	c22.3,13.4,33.3,46.3,26.9,70.8c-3.8,15.1-12.2,28.6-24,38.7c-2.9,2.5-3.9,5-2.6,8.7c4.2,11.9,3.9,24.1,0.6,36.1
	c-4.5,16.6-13.7,30.4-28,40c-13.7,9.2-28.9,14.3-45.8,12.1C446.7,475.8,445.3,475.9,443.8,476.1z M336.9,218.8
	c15.5-1.4,28.9,2.5,41.4,9.3c3.6,2,5.2,1,7.6-1.3c11.2-10.7,22.5-21.3,33.7-32c4.4-4.2,9.3-8.3,12.7-13.2c6.6-9.7,5.5-20.6,2.5-31.3
	c-3.7-12.9-12.4-21.5-25.3-23.4c-12.7-1.8-25.8-0.9-38.7-1.7c-3.7-0.2-7.3-1.5-10.3-3.7c-3.2-2.4-5.5-6.2-7.8-9.7
	c-8.2-12.1-17.7-22.2-33.3-23.7c-10.6-1.1-20.4,0.1-29,7.6c-10,8.8-14.5,20-16.1,32.8c-1.9,15.3,8.3,28.3,23.4,29.8
	c13.6,1.3,24.4,8,33.5,18.2l-10.6,10c-9.7-11.4-21.5-16.7-35.8-15.6c-14.5,1.1-25,9.1-33,21.3l-6.6-7.2c6.8-7.8,13.2-15.5,20-22.8
	c3.3-3.6,3.6-6.9,1.7-11.3c-5.5-12.7-15.6-21.4-25.6-30.1c-3.3-2.9-7.9-4.8-12.3-6.1c-24.6-7.1-48.4,8.5-51.5,33.8
	c-1,8.2-0.8,16.6-1.1,24.8c-0.2,6.3-0.4,12.7-0.7,19.3c-1.1-0.1-2.1-0.3-3.1-0.6c-12.1-5.5-24.4-5.8-37-2.1
	c-19.8,5.7-33.3,17.1-36.4,38.4c-0.8,4.8-1.2,9.6-1.2,14.4c0.2,10.8,1.1,21.7,11,28.7c4.7,3.3,10,5.8,15,8.6c3,1.6,6.1,3.1,9.6,4.9
	c4-12.9,9.8-24.1,20-32.8l12.2,13.1c-12.6,8.8-20.1,20.3-21.3,35.4c-1.2,15.1,4.7,27.5,15.3,38.3l-10.4,9.5
	c-7.8-8-13.2-18-15.6-28.8c-1.2-5.5-1.6-11.3-3.6-16.5c-3.3-8.5-11-12.3-19.1-14.8c-20.1-6.1-33-0.3-43,17.7
	c-5.4,9.6-3.4,25,3.5,31.9c5.5,5.6,11.3,10.8,17.2,16c11.9,10.3,18.4,23.1,17.7,39c-0.4,9.5-1.8,18.9-2.3,28.4
	c-0.8,13.4,6.1,30,22.6,32.6c11.4,1.8,21.7-1,30.4-9.2c12.6-11.9,25.5-23.5,38.3-35.1c5.8-5.2,6-7.1,3.1-14.3
	c-2.5-6.3-5.6-12.7-6.2-19.3c-1.3-13.1-1.1-10.4,10-10.6c5-0.1,6.6,2,6.2,7c-0.8,9.7,1.9,19.4,7.6,27.4c10.5,15.1,25,22.3,43.7,20.6
	c1.9-0.2,4.9,0.6,5.6,1.9c1.6,3,2,6.5,3.3,11.5c-7.6-0.4-14.4-0.3-21-1.2c-10.1-1.3-18.8-6.5-27-12.2c-5-3.4-9.1-3.8-13.3-0.6
	c-15,11.3-30.2,22.5-45,34.1c-3,2.3-6,5.9-6.9,9.4c-3.7,15.2-3.1,29.3,7.6,42.9c12.7,16.1,27.5,22.6,47.8,19.8
	c11.5-1.6,22.7,0.2,30.6,11c13.3,17.9,30.4,27.7,53.8,24.5c18.9-2.6,31.4-19.4,27.5-38c-1.6-7.4-2.1-15.1-2.8-22.7
	c-0.5-6.3-1.6-7.8-7.7-9c-6.9-1.3-13.8-2.3-20.6-4c-7.9-1.9-15.7-4.1-21.1-12c5.8-2.7,11.2-5.1,16.5-7.9c3.6-1.9,5.7-1.3,8.5,1.8
	c14.8,16.6,39.3,18.1,56.2,3.7c2-1.7,3.9-3.5,6.1-5.5l8.8,9.5c-8.4,8.5-19,14.4-30.5,17.1c-3,0.8-2.9,2-1.9,4.2
	c1.7,4,3.2,8,5.1,11.9c2.2,4.2,4.1,8.9,7.3,12.1c9.6,9.6,24,12.4,36.4,5.2c13.4-7.8,25.9-17.4,38-27.2c10.5-8.5,14.5-20.4,12.9-34
	c-0.1-1.7-0.1-3.4,0-5.2c2,0.2,3.5,0.4,4.9,0.4c8-0.1,16.4,1.6,23.4-3.3c10.5-7.3,20.5-15.2,30.4-23.3c13.2-10.8,11.2-35.7,1.4-47.6
	c-2.3-2.8-4.8-5.5-7.2-8.3c-4.9-5.9-11.4-9.3-18.7-11.9c-3.7,12.8-9.7,23.7-19.9,32.4l-11.7-12.5c12.7-9.1,19.6-20.9,20.5-35.8
	s-5.2-27.1-15.8-37.8l11.3-10c9.5,10.3,15.4,21.6,16.4,35c0.8,10,6.5,18.2,15.5,20.4c21.2,5.1,36.1-2.8,44.7-24.2
	c4.6-11.3,6.3-23.6,4.7-35.7c-1.6-12.2-11.2-21.6-23.5-21.5c-3.6,0-7.1,0.8-11.6,1.4c0.5-1.7,1.1-3.3,1.9-4.9
	c4.8-9.3,6.2-19.1,5.5-29.5c-0.7-9.7-5-18.1-8.4-27c-4.6-12-12.7-19.9-23.9-25.6c-12.5-6.3-27.6-4.1-37.9,5.4
	c-12.8,12.2-25.8,24.1-38.8,36.1c-5.2,4.8-5.2,4.7-1.1,10.2c9.7,12.7,14.8,28.4,14.3,44.4l-10.9-0.7c-0.2-0.5-0.3-1-0.4-1.6
	c3.6-28.2-20.8-55.6-52.3-51.4c-1.7,0-3.3-0.7-4.3-2.1C340.7,228.2,339,223.7,336.9,218.8z"/>
<path class="st2" d="M336.9,218.8c2.1,4.9,3.8,9.4,6,13.6c1,1.4,2.6,2.1,4.3,2.1c31.5-4.2,55.9,23.1,52.3,51.4
	c0.1,0.5,0.2,1.1,0.4,1.6l10.9,0.7c0.4-16-4.6-31.6-14.3-44.4c-4.2-5.5-4.2-5.4,1.1-10.2c13-12,26-23.9,38.8-36.1
	c10.2-9.5,25.3-11.7,37.9-5.4c11.2,5.6,19.3,13.6,23.9,25.6c3.4,8.9,7.6,17.3,8.4,27c0.8,10.4-0.7,20.2-5.5,29.5
	c-0.7,1.6-1.3,3.3-1.9,4.9c4.5-0.6,8-1.3,11.6-1.4c12.3-0.2,21.9,9.3,23.5,21.5c1.5,12.1-0.1,24.4-4.7,35.7
	c-8.7,21.4-23.5,29.3-44.7,24.2c-9-2.2-14.7-10.4-15.5-20.4c-1-13.4-6.9-24.7-16.4-35l-11.3,10c10.6,10.7,16.7,23,15.8,37.8
	s-7.8,26.6-20.5,35.8l11.7,12.5c10.2-8.7,16.1-19.6,19.9-32.4c7.4,2.6,13.8,6,18.7,11.9c2.4,2.8,4.8,5.5,7.2,8.3
	c9.8,11.9,11.8,36.8-1.4,47.6c-9.9,8.1-20,16-30.4,23.3c-6.9,4.9-15.4,3.2-23.4,3.3c-1.5,0-2.9-0.2-4.9-0.4c-0.1,1.7-0.1,3.4,0,5.2
	c1.6,13.6-2.5,25.5-12.9,34c-12.1,9.8-24.6,19.4-38,27.2c-12.5,7.3-26.8,4.5-36.5-5.1c-3.2-3.2-5.1-7.9-7.3-12.1
	c-2-3.8-3.4-7.9-5.1-11.9c-1-2.2-1.1-3.4,1.9-4.2c11.6-2.7,22.2-8.7,30.5-17.1l-8.8-9.5c-2.2,2-4.1,3.8-6.1,5.5
	c-16.9,14.4-41.4,12.9-56.2-3.7c-2.8-3.1-4.9-3.7-8.5-1.8c-5.2,2.8-10.7,5.2-16.5,7.9c5.4,7.9,13.2,10.1,21.1,12
	c6.8,1.6,13.7,2.6,20.6,4c6.1,1.2,7.2,2.7,7.7,9c0.7,7.6,1.2,15.3,2.8,22.7c3.9,18.6-8.5,35.4-27.5,38c-23.4,3.2-40.5-6.6-53.8-24.5
	c-8-10.7-19.2-12.6-30.6-11c-20.3,2.9-35.2-3.7-47.8-19.8c-10.7-13.5-11.3-27.6-7.6-42.9c0.9-3.5,3.9-7,6.9-9.4
	c14.8-11.6,30-22.8,45-34.1c4.2-3.2,8.2-2.9,13.3,0.6c8.3,5.6,16.9,10.9,27,12.2c6.6,0.8,13.3,0.8,21,1.2c-1.3-4.9-1.8-8.5-3.3-11.5
	c-0.7-1.3-3.7-2-5.6-1.9c-18.7,1.8-33.2-5.4-43.8-20.5c-5.7-8-8.3-17.7-7.6-27.4c0.4-5-1.3-7.1-6.2-7c-11,0.2-11.3-2.5-10,10.6
	c0.7,6.6,3.7,13,6.2,19.3c2.9,7.2,2.6,9.1-3.1,14.3c-12.7,11.5-25.7,23.1-38.2,34.9c-8.7,8.2-19,11-30.4,9.2
	c-16.5-2.5-23.4-19.2-22.6-32.6c0.5-9.5,1.9-18.9,2.3-28.4c0.6-15.9-5.9-28.6-17.7-39c-5.9-5.1-11.7-10.4-17.2-16
	c-6.9-6.9-8.8-22.3-3.5-31.9c10.1-18,23-23.9,43-17.7c8.2,2.5,15.8,6.3,19.1,14.8c2,5.2,2.3,11,3.6,16.5
	c2.5,10.9,7.9,20.9,15.7,28.9l10.1-9.4c-10.6-10.8-16.5-23.2-15.3-38.3s8.7-26.6,21.3-35.4l-12.2-13.1c-10.2,8.7-16,19.9-20,32.8
	c-3.5-1.8-6.6-3.2-9.6-4.9c-5.1-2.8-10.4-5.3-15-8.6c-9.9-7-10.8-17.8-11-28.7c0-4.8,0.4-9.6,1.2-14.4c3.2-21.2,16.7-32.7,36.4-38.4
	c12.7-3.7,25-3.4,37,2.1c1,0.3,2.1,0.5,3.1,0.6c0.2-6.7,0.4-13,0.7-19.3c0.3-8.3,0.1-16.7,1.1-24.8c3.1-25.3,27-40.9,51.5-33.8
	c4.3,1.2,8.9,3.2,12.3,6.1c10,8.7,20.1,17.4,25.6,30.1c1.9,4.4,1.7,7.7-1.7,11.3c-6.8,7.3-13.2,15-20,22.8l6.6,7.1
	c8-12.2,18.5-20.2,33-21.3c14.3-1.1,26,4.2,35.8,15.6l10.6-10c-9.2-10.2-20-16.9-33.5-18.2c-15-1.5-25.3-14.5-23.4-29.8
	c1.6-12.8,6.1-24,16.1-32.8c8.6-7.5,18.4-8.7,29-7.6c15.6,1.6,25.2,11.6,33.3,23.7c2.3,3.4,4.6,7.2,7.8,9.7c3,2.2,6.6,3.5,10.4,3.8
	c12.9,0.8,26-0.1,38.8,1.7c12.9,1.9,21.6,10.4,25.3,23.4c3,10.7,4.1,21.6-2.5,31.3c-3.4,5-8.3,9-12.7,13.2
	c-11.2,10.7-22.5,21.3-33.7,32c-2.4,2.3-4,3.2-7.6,1.3C365.8,221.3,352.4,217.4,336.9,218.8z M298.2,257.7c-0.6-1.9-1.2-3.7-2-5.5
	c-4.9-9.9-12.8-16.5-22.7-20.8c-18.3-7.9-36.6-8.5-52.9,4.2c-18.2,14.3-25.7,34.6-25.6,57.2c0.1,23,12.4,38.5,34.1,45.9
	c17.8,6.1,34.4,4.4,48.5-9.5c3.1-3.1,3-5.2,0.4-8.4s-4.9-4.5-8.9-2c-7,4.4-15.1,6.5-23.4,6c-16.5-1-31.2-12.7-36.2-28.6
	c-5-16.2,0.5-33.9,13.9-44.3c13.1-10.1,31.4-11.5,45.4-2.5c5.9,3.8,10.6,9.3,16.2,14.3L298.2,257.7z M390.4,324.5
	c-2.3-1.6-4.1-3-6.1-4.1c-8.5-4.9-17.7-6-27.4-5.3c-22.5,1.6-41.8,17-46.5,38.1c-3.2,14.5-0.7,28.6,4.1,42.6
	c7.7,22.2,28.3,39.6,56.3,34.8c16.5-2.9,30.3-10.1,37.3-26.5c3.5-8.2,3.2-9-4-14.2c-3-2.1-4.4-1.6-6,1.5
	c-8.1,15.5-23.3,23.6-40.4,21.9c-22.1-2.2-37.4-20.6-36.3-43.6c1-20.4,19.2-37.6,40.3-37c7.1,0.2,14.2,2.5,21.8,3.9L390.4,324.5z"/>
<path class="st1" d="M298.2,257.7l-13,6c-5.6-5-10.4-10.5-16.2-14.3c-14-9-32.3-7.6-45.4,2.5c-13.4,10.4-18.9,28.1-13.9,44.3
	c4.9,15.9,19.7,27.6,36.2,28.6c8.2,0.5,16.4-1.6,23.4-6c4-2.5,6.3-1,8.9,2s2.7,5.3-0.4,8.4c-14.2,13.9-30.8,15.6-48.6,9.5
	c-21.7-7.4-33.9-22.9-34.1-45.9c-0.1-22.6,7.3-42.9,25.6-57.2c16.2-12.8,34.5-12.1,52.9-4.2c9.9,4.3,17.9,10.9,22.7,20.8
	C296.9,253.9,297.6,255.8,298.2,257.7z"/>
<path class="st1" d="M390.4,324.5l-6.9,12c-7.6-1.4-14.6-3.7-21.8-3.9c-21.1-0.5-39.3,16.6-40.3,37c-1.1,23,14.2,41.4,36.3,43.6
	c17.1,1.7,32.3-6.4,40.4-21.9c1.7-3.2,3.1-3.7,6-1.5c7.2,5.2,7.5,6,4,14.2c-7,16.4-20.8,23.6-37.3,26.5c-28,4.8-48.5-12.6-56.2-34.8
	c-4.8-14-7.3-28-4.1-42.6c4.7-21.1,24.1-36.5,46.5-38.1c9.7-0.7,18.9,0.5,27.4,5.3C386.3,321.5,388.1,323,390.4,324.5z"/>
<g>
	<path class="st3" d="M150.9,167.8c-1.2-1.5-2.4-3-3.5-4.4c-1.1-1.5-2.3-2.9-3.4-4.4c-1.1-1.5-2.2-2.9-3.4-4.3
		c-0.6-0.7-1.1-1.4-1.7-2.1c-0.6-0.7-1.2-1.4-1.7-2.1c-4.5-5.6-9.1-11-13.9-16.1c-9.5-10.2-19.6-19.5-30.5-27.4
		C81.9,99,70.2,92.6,57.5,88.3c-12.7-4.2-26.3-5.8-41.5-4.4c1.5-1.1,3.1-2.3,4.7-3.3l2.5-1.4c0.4-0.2,0.9-0.5,1.3-0.7l1.3-0.6
		c1.8-0.8,3.6-1.6,5.4-2.2c0.9-0.3,1.9-0.6,2.8-0.9l2.9-0.7c7.7-1.8,15.8-2.2,23.8-1.3c8,0.9,15.8,3,23.1,6.1
		c7.4,3.1,14.3,7,20.7,11.6c12.8,9.3,23.4,21.1,31.4,34.3c4,6.6,7.3,13.6,9.8,20.7c0.7,1.8,1.2,3.6,1.8,5.4c0.5,1.8,1.1,3.6,1.5,5.5
		c0.4,1.9,0.9,3.7,1.2,5.6C150.4,164,150.7,165.9,150.9,167.8z"/>
</g>
<g>
	<path class="st3" d="M149.4,167.8c-1.1-1.8-2.1-3.7-3-5.4c-0.4-0.9-0.9-1.8-1.4-2.7c-0.5-0.9-0.9-1.8-1.3-2.6l-2.6-5.1
		c-0.4-0.8-0.8-1.7-1.2-2.5l-1.2-2.5c-3.2-6.6-6.2-12.9-9.3-18.9c-6.1-12.1-12-23.3-18.4-33.8c-6.4-10.5-13.2-20.2-21.3-29.5
		c-4.1-4.6-8.5-9.1-13.7-13.5l-2-1.7c-0.7-0.5-1.4-1-2.1-1.6c-0.7-0.5-1.4-1.1-2.1-1.6c-0.7-0.5-1.5-1.1-2.2-1.6L66.4,44
		c-0.4-0.2-0.8-0.5-1.2-0.8l-2.4-1.6c-1.7-1.1-3.4-2.1-5.2-3.3c1.8-1,3.8-1.9,5.8-2.7c2-0.6,4-1.4,6.1-1.7c2.1-0.4,4.2-0.8,6.3-0.9
		c1.1-0.1,2.1-0.1,3.2-0.2c1.1,0,2.1,0,3.2,0c8.6,0.3,17.4,2.5,25.3,6.2c8,3.7,15.2,8.8,21.5,14.7c6.3,5.9,11.7,12.7,16.1,19.9
		c8.8,14.5,13.8,30.8,14.7,47.1c0.5,8.1-0.1,16.3-1.7,24.3c-0.4,2-0.9,4-1.4,5.9c-0.5,2-1.1,3.9-1.9,5.8c-0.7,1.9-1.5,3.8-2.4,5.7
		C151.5,164.2,150.5,166,149.4,167.8z"/>
</g>
<g>
	<path class="st4" d="M149.4,167.8c-1.9-14.6-4.4-28.9-8.6-42.5c-4.1-13.7-9.7-26.8-17-38.8c-7.3-12-16.4-22.8-27.4-31.4
		c-11-8.6-24.2-14.5-38.8-16.9c0.9-0.1,1.8-0.2,2.8-0.2c0.9-0.1,1.9-0.2,2.8-0.2l2.8,0l1.4,0l1.4,0.1c1.9,0.1,3.8,0.3,5.6,0.6
		l2.8,0.5l2.8,0.7c7.4,1.8,14.5,4.9,21,8.9c13,8.1,23.6,19.7,31.5,32.7c7.9,13,13.2,27.4,16.1,42.1
		C151.2,138.1,151.6,153.2,149.4,167.8z"/>
</g>
</svg>
